<svg width="136" height="37" viewBox="0 0 136 37" fill="none" xmlns="http://www.w3.org/2000/svg">
<path d="M29.0742 0.0402679L16.8869 0.0402679C16.3766 0.0402679 15.9636 0.459994 15.9636 0.97848V5.23061C15.9636 5.483 16.1715 5.69423 16.4279 5.69423H22.6782C22.932 5.69423 23.1345 5.90547 23.1345 6.15785V23.3886C23.1345 23.545 23.175 23.6986 23.2479 23.8357C23.7365 24.7548 24.101 25.7506 24.3143 26.804C24.3926 27.1853 24.6734 27.4981 25.0514 27.5529C26.6983 27.7834 28.1509 28.5488 29.1957 29.6543C29.4873 29.9616 29.9922 29.7531 29.9922 29.3279V0.97848C29.9922 0.459994 29.5791 0.0402679 29.0688 0.0402679H29.0742Z" fill="#FAFAFA"/>
<path d="M0.133324 5.54061C0.22242 5.63662 0.341215 5.67503 0.46811 5.68874C0.541007 5.69697 0.616604 5.69697 0.689501 5.69697C2.27164 5.69697 3.85377 5.69149 5.43591 5.68874C5.5925 5.68874 5.76529 5.69149 5.88949 5.79025C6.06498 5.92741 6.08118 6.18528 6.08118 6.41024C6.08118 9.38947 6.08118 12.3714 6.08118 15.3507C5.85169 14.6072 5.6222 13.8638 5.39271 13.1204C5.34951 12.9832 5.30361 12.8406 5.19562 12.75C5.06872 12.643 4.88783 12.6403 4.72314 12.6403C3.34079 12.6403 1.96115 12.643 0.578806 12.6458C0.433012 12.6458 0.276418 12.6513 0.163023 12.7418C-0.0448687 12.9119 0.0280283 13.2411 0.117125 13.4962C1.23218 16.6675 2.34453 19.836 3.45959 23.0073C3.53788 23.2295 3.64858 23.4819 3.87267 23.534C4.15616 23.5998 4.38565 23.3063 4.54224 23.0566C5.77339 21.1062 7.62822 19.5699 9.75843 18.7359C11.8859 17.902 14.2753 17.7758 16.4785 18.3793C16.6971 18.4397 16.9455 18.5027 17.1345 18.3793C17.2722 18.2915 17.3397 18.1269 17.3991 17.9733C18.66 14.7664 19.9208 11.5622 21.1817 8.35524C21.2654 8.14126 21.3464 7.88339 21.2141 7.69411C21.0899 7.51579 20.8388 7.49933 20.6255 7.49933C19.3376 7.49933 18.0498 7.49384 16.7592 7.4911C16.5621 7.4911 16.3489 7.49384 16.1896 7.61181C16.0411 7.72154 15.9682 7.90534 15.9034 8.07817C15.2554 9.8092 14.6074 11.543 13.9595 13.274C13.8353 13.6087 13.5626 14.0147 13.2332 13.8885C12.9821 13.7897 12.9416 13.4523 12.9416 13.1807V0.720609C12.9416 0.525834 12.9335 0.309112 12.7958 0.17469C12.6662 0.0484978 12.4637 0.0402679 12.2828 0.0402679C9.23195 0.0402679 6.17838 0.0430111 3.1275 0.0457544C2.54972 0.0457544 1.97195 0.0457544 1.39417 0.0457544C1.13498 0.0457544 0.875793 0.0457544 0.616604 0.0457544C0.414112 0.0457544 0.22512 0.0484979 0.109025 0.246016C0.00102921 0.427075 0.00372927 0.652026 0.00372927 0.857774C0.00372927 2.24589 0.00642902 3.634 0.00912891 5.02212C0.00912891 5.20592 0.0172287 5.40618 0.138724 5.54061H0.133324Z" fill="#FAFAFA"/>
<path d="M26.4957 31.4429C25.5939 30.7324 24.4869 30.6117 23.3773 30.7105C22.7239 30.7681 22.0705 30.8943 21.4496 31.0013V29.0535C21.4496 25.9755 19.5596 23.0402 16.7868 21.8002C13.8926 20.5026 10.38 21.2406 8.1499 23.4956C7.86101 23.7891 7.59373 24.1046 7.35344 24.4393C6.94305 25.0099 6.60557 25.6354 6.36528 26.2992C6.21948 26.697 6.11959 27.1085 6.01159 27.5173C5.94949 27.7477 5.9117 28.0001 5.8253 28.2223C5.8091 28.2634 5.03153 28.1674 4.95053 28.1619C4.31066 28.1263 3.69239 28.0988 3.07141 28.2744C2.53413 28.428 2.03195 28.6941 1.59727 29.0508C1.07349 29.4815 0.65501 30.0411 0.39042 30.6721C-0.948725 33.8653 1.34888 36.9597 4.33496 36.9597H24.0793C24.3411 36.9515 24.6057 36.9296 24.8514 36.8802C26.5362 36.5674 27.7943 35.2945 27.7943 33.7857C27.7943 32.8064 27.2327 32.0218 26.4957 31.4402V31.4429Z" fill="#DB434E"/>
<path d="M46.3691 10.0026H52.3413V22.6795H58.1785V27.8698H46.3691V10.0026Z" fill="#FAFAFA"/>
<path d="M73.8136 14.5922L68.8647 27.8698H62.6198L57.5602 14.5922H63.9266L67.2339 24.811H67.4445C67.2636 23.7329 67.0666 22.342 66.8533 20.6357C66.64 18.9293 66.4699 17.4973 66.3484 16.3342L66.1513 14.5922H73.8136Z" fill="#FAFAFA"/>
<path d="M74.8988 27.8698V8.76263H80.6361V27.8698H74.8988Z" fill="#FAFAFA"/>
<path d="M95.704 14.241C96.5355 14.241 97.2375 14.3919 97.8153 14.6937C98.3904 14.9954 98.8197 15.3137 99.0977 15.6456H99.1463V8.76263H104.908V27.8698H101.317L99.4406 23.1184H99.2435C99.7295 26.5283 98.5497 28.2347 95.7013 28.2347C94.9615 28.2347 94.2703 28.1085 93.6278 27.8533C92.9852 27.5982 92.4317 27.2471 91.9673 26.7999C91.503 26.3527 91.1007 25.8315 90.7632 25.2335C90.4257 24.6354 90.1746 23.9935 90.0099 23.3022C89.8452 22.6136 89.7642 21.9003 89.7642 21.1651C89.7642 20.2791 89.8965 19.4259 90.1665 18.6084C90.4338 17.7881 90.8091 17.0529 91.2951 16.4028C91.781 15.7498 92.4047 15.2286 93.1715 14.8363C93.9355 14.444 94.7806 14.2465 95.7013 14.2465L95.704 14.241ZM97.2213 23.4311C97.8288 23.4311 98.3526 23.2555 98.7873 22.9044C99.2246 22.5533 99.4406 22.0019 99.4406 21.2502V20.4217C99.1436 19.9608 98.7981 19.6069 98.4039 19.3546C98.0097 19.1049 97.6155 18.9787 97.2186 18.9787C96.5355 18.9787 96.0064 19.2229 95.6338 19.7112C95.2585 20.1995 95.0722 20.7125 95.0722 21.2474C95.0722 21.925 95.2855 22.4572 95.7148 22.8468C96.1414 23.2363 96.6435 23.4284 97.2186 23.4284L97.2213 23.4311Z" fill="#FAFAFA"/>
<path d="M111.596 22.8166V22.9428C111.604 23.3186 111.769 23.6012 112.09 23.7905C112.411 23.9798 112.751 24.0731 113.116 24.0731C113.667 24.0731 114.188 23.9551 114.676 23.7164C115.165 23.4778 115.554 23.2117 115.843 22.9209L118.804 25.8178C118.556 26.0592 118.264 26.2979 117.927 26.5311C117.589 26.7642 117.149 27.0221 116.607 27.3019C116.064 27.5817 115.405 27.8067 114.633 27.9795C113.861 28.1496 113.04 28.2374 112.176 28.2374C110.219 28.2374 108.745 27.6833 107.754 26.575C106.763 25.4667 106.234 23.9222 106.169 21.9415C106.161 21.5986 106.177 21.2365 106.218 20.8579C106.258 20.4766 106.35 20.0294 106.488 19.5109C106.628 18.9924 106.814 18.4986 107.049 18.0323C107.284 17.5632 107.611 17.0941 108.029 16.6222C108.448 16.1504 108.931 15.7416 109.479 15.3987C110.027 15.0558 110.713 14.7787 111.539 14.5647C112.365 14.3508 113.278 14.2438 114.271 14.2438C114.906 14.2438 115.492 14.3206 116.037 14.477C116.58 14.6306 117.077 14.8665 117.53 15.1792C117.984 15.492 118.343 15.9199 118.61 16.4631C118.877 17.0063 119.023 17.6345 119.047 18.345C119.064 18.9897 118.939 19.5685 118.678 20.087C118.416 20.6055 118.051 21.0307 117.587 21.3654C117.122 21.7001 116.564 21.9772 115.916 22.1994C115.265 22.4216 114.585 22.5807 113.874 22.6767C113.162 22.7727 112.403 22.8221 111.598 22.8221L111.596 22.8166ZM111.226 20.7098H111.523C112.346 20.7098 113.021 20.6055 113.548 20.397C114.042 20.1803 114.277 19.7798 114.25 19.1927C114.193 18.4081 113.731 18.0131 112.867 18.0131C112.309 18.0131 111.877 18.2106 111.571 18.6084C111.266 19.0062 111.131 19.5329 111.164 20.194L111.226 20.707V20.7098Z" fill="#FAFAFA"/>
<path d="M135.103 14.5922L130.154 27.8698H123.909L118.85 14.5922H125.216L128.524 24.811H128.734C128.553 23.7329 128.356 22.342 128.143 20.6357C127.93 18.9293 127.759 17.4973 127.638 16.3342L127.441 14.5922H135.103Z" fill="#FAFAFA"/>
</svg>
